# xmcd CD database file
# Generated: Tue Oct 22 07:07:00 2002 by KSCD
# 
# Track frame offsets:
#       150
#       16047
#       30622
#       51147
#       65357
#       79120
#       93403
#       115119
#       138013
#       156782
#       171918
#       186245
#       201331
#       204952
#       207760
#       211696
#       214432
#       218143
#       220820
#       224115
#       230661
#       237207
#       246588
#       251304
#       256020
#       262596
#       266307
#       270018
#       275169
#       279045
#       281901
#
# Disc length: 3800 seconds
#
# Revision: 1
# Processed by: cddbd v1.4PL0 Copyright (c) Steve Scherf et al.
# Submitted via: Kscd 1.3.3
#
DISCID=c60ed61f
DTITLE=Jay Buckey - Mandolin V5
DYEAR=1900
DGENRE=
TTITLE0=High On A Mountain Top
TTITLE1=In The Sweet By and By
TTITLE2=Drifting Too Far From The Shore
TTITLE3=Maiden's Prayer
TTITLE4=What A Friend We Have In Jesus
TTITLE5=Rank Stranger
TTITLE6=Life Is Like A Mountain Railway
TTITLE7=Get Up John
TTITLE8=The Old Crossroads
TTITLE9=Sweet Hour of Prayer
TTITLE10=Swing Low, Sweet Chariot
TTITLE11=Will The Circle Be Unbroken
TTITLE12=High On A Mountain Top 100bpm
TTITLE13=High On A Mountain Top 150bpm
TTITLE14=In The Sweet By and By 100bpm
TTITLE15=In The Sweet By and By 150bpm
TTITLE16=What A Friend We Have in Jesus 100bpm
TTITLE17=What A Friend We Have In Jesus 150bpm
TTITLE18=Life Is Like A Mountain Railroad 120bpm
TTITLE19=Get Up John solo 1 100bpm
TTITLE20=GUJ solo 2 100
TTITLE21=GUJ solo 3 100
TTITLE22=GUJ solo 1 150bpm
TTITLE23=GUJ solo 2 150bpm
TTITLE24=GUJ solo 3 150bpm
TTITLE25=GUJ solo 1 200bpm
TTITLE26=GUJ solo 2 200bpm
TTITLE27=GUJ solo 3 200bpm
TTITLE28=Swing Low Sweet Chariot 100bpm
TTITLE29=Swing Low Sweet Chariot 150bpm
TTITLE30=Will The Circle Be Unbroken 120bpm
EXTD=
EXTT0=
EXTT1=
EXTT2=
EXTT3=
EXTT4=
EXTT5=
EXTT6=
EXTT7=
EXTT8=
EXTT9=
EXTT10=
EXTT11=
EXTT12=
EXTT13=
EXTT14=
EXTT15=
EXTT16=
EXTT17=
EXTT18=
EXTT19=
EXTT20=
EXTT21=
EXTT22=
EXTT23=
EXTT24=
EXTT25=
EXTT26=
EXTT27=
EXTT28=
EXTT29=
EXTT30=
PLAYORDER=
